<svg xmlns="http://www.w3.org/2000/svg" xmlns:xlink="http://www.w3.org/1999/xlink"
    aria-hidden="true" role="img" class="iconify iconify--logos" width="40" height="40"
    preserveAspectRatio="xMidYMid meet" viewBox="0 0 40 40">
    <path
        d="M17.014,16.345c-0.117,-0.084 -1.316,-0.943 -1.526,-0.955c-1.051,-0.059 -0.838,12.286 -0.02,12.351c0.993,0.078 2.207,-2.782 2.909,-2.352c0.14,0.085 2.121,4.896 2.937,4.549c1.283,-0.546 1.008,-0.842 0.93,-0.911c-0.621,-0.547 -0.535,-2.363 -1.243,-3.561c-0.441,-0.747 -0.65,-0.63 -0.836,-1.48c1.306,-0.02 6.151,0.253 2.502,-1.935c-1.006,-0.603 -4.139,-4.943 -5.727,-5.68" fill="#ff0000" stroke="#0000ff" stroke-width="2" />
    <path
        d="M21.337,9.733c-0.059,0.116 -0.076,0.25 -0.135,0.366c-0.024,0.047 -0.988,0.328 -1.43,0.794c-0.105,0.11 -0.234,0.281 -0.309,0.535c-0.062,0.215 -0.153,0.123 -0.346,0.234c-0.055,-0.118 -0.14,-0.22 -0.195,-0.338c-0,-0 0.03,-0.12 0.083,-0.247c0.365,-0.878 1.266,-1.163 1.969,-1.478c0.028,-0.013 0.026,0.009 0.363,0.134Z" fill="#ff0000" stroke="#0000ff" stroke-width="2" />
    <path
        d="M15.969,7.743c0.036,0.137 0.098,0.266 0.134,0.403c0.008,0.033 -0.263,0.491 -0.261,1.243c0,0.074 0.015,0.748 0.007,0.757c-0.083,0.1 -0.199,0.168 -0.282,0.268l-0.268,-0.28c0.014,-0.712 -0.1,-1.174 0.256,-2.097c0.012,-0.031 0.009,-0.075 0.037,-0.095c0.116,-0.082 0.261,-0.117 0.377,-0.199Z" fill="#ff0000" stroke="#0000ff" stroke-width="2" />
    <path
        d="M8.337,10.62c0.133,-0.056 0.244,-0.157 0.376,-0.213c0.011,-0.004 0.317,0.066 0.344,0.073c1.742,0.403 2.161,1.188 2.159,1.203c-0.017,0.129 -0.068,0.251 -0.085,0.38c-0.128,-0.041 -0.262,-0.061 -0.39,-0.102c-0.016,-0.005 -0.22,-0.475 -1.419,-0.841c-0.373,-0.113 -0.708,-0.172 -0.709,-0.172c-0.103,-0.099 -0.173,-0.229 -0.276,-0.328Z" fill="#ff0000" stroke="#0000ff" stroke-width="2" />
    <path
        d="M7.86,17.39l-0.283,-0.471c1.384,-0.832 1.37,-0.941 3.003,-1.138c0.273,-0.033 0.302,0.21 0.306,0.241c0.036,0.305 -0.081,0.285 -0.385,0.323c-1.375,0.17 -1.362,0.277 -2.641,1.045Z" fill="#ff0000" stroke="#0000ff" stroke-width="2" />
    <path
        d="M10.393,21.728c-0.033,-0.16 -0.121,-0.304 -0.155,-0.464c-0.008,-0.04 0.022,-0.078 0.034,-0.117c0.327,-1.139 0.428,-1.226 1.14,-2.354c0.146,-0.232 0.352,-0.103 0.379,-0.086c0.109,0.069 0.096,0.25 0.086,0.379c-0.005,0.062 -0.602,0.819 -0.859,1.522c-0.118,0.322 -0.249,0.804 -0.251,0.806c-0.112,0.118 -0.262,0.196 -0.374,0.314Z" fill="#ff0000" stroke="#0000ff" stroke-width="2" />
</svg>